<svg width="343" height="32" viewBox="0 0 343 32" fill="none" xmlns="http://www.w3.org/2000/svg">
<path fill-rule="evenodd" clip-rule="evenodd" d="M0 10C0 4.47715 4.47715 0 10 0H333C338.523 0 343 4.47715 343 10V22C343 27.5228 338.523 32 333 32H10C4.47716 32 0 27.5228 0 22V10Z" fill="#FDE0B7"/>
<path d="M44.1763 12.5454H44.2759L47.0317 22H48.4429L51.7051 10.022H50.1445L47.7622 19.7588H47.6626L44.9814 10.022H43.4707L40.7896 19.7588H40.6899L38.3076 10.022H36.7471L40.0093 22H41.4204L44.1763 12.5454ZM55.3127 20.9043C54.2751 20.9043 53.5031 20.373 53.5031 19.46C53.5031 18.5635 54.1007 18.0903 55.4621 17.999L57.8693 17.8413V18.6631C57.8693 19.9414 56.7819 20.9043 55.3127 20.9043ZM55.047 22.1577C56.2423 22.1577 57.2218 21.6348 57.8029 20.6802H57.9357V22H59.297V15.874C59.297 14.0146 58.0768 12.894 55.8937 12.894C53.9845 12.894 52.5734 13.8403 52.3825 15.2764H53.8268C54.026 14.5708 54.7731 14.1641 55.8439 14.1641C57.1803 14.1641 57.8693 14.77 57.8693 15.874V16.6875L55.2878 16.8452C53.2043 16.9697 52.0255 17.8911 52.0255 19.4932C52.0255 21.1284 53.3122 22.1577 55.047 22.1577ZM61.3192 15.5005C61.3192 16.7954 62.0828 17.5176 63.7596 17.9243L65.2952 18.2979C66.2498 18.5303 66.7147 18.9453 66.7147 19.5596C66.7147 20.3813 65.8514 20.9541 64.6478 20.9541C63.5023 20.9541 62.7884 20.4727 62.5477 19.7173H61.0784C61.2362 21.2031 62.6058 22.1577 64.598 22.1577C66.6317 22.1577 68.1839 21.0537 68.1839 19.4517C68.1839 18.165 67.3704 17.4346 65.6854 17.0278L64.3074 16.6958C63.2532 16.4385 62.7552 16.0566 62.7552 15.4424C62.7552 14.6455 63.5853 14.106 64.6478 14.106C65.7269 14.106 66.4241 14.5791 66.6151 15.293H68.0262C67.8353 13.8237 66.5321 12.894 64.6561 12.894C62.7552 12.894 61.3192 14.0146 61.3192 15.5005ZM70.0981 22H71.5259V16.7041C71.5259 15.1934 72.4057 14.1807 74.0078 14.1807C75.3608 14.1807 76.0747 14.9692 76.0747 16.5547V22H77.5024V16.2061C77.5024 14.106 76.3071 12.894 74.4145 12.894C73.0449 12.894 72.1069 13.4751 71.6587 14.4629H71.5259V9.49902H70.0981V22ZM79.7321 22H81.1598V13.0518H79.7321V22ZM80.4459 11.3252C80.9938 11.3252 81.442 10.877 81.442 10.3291C81.442 9.78125 80.9938 9.33301 80.4459 9.33301C79.8981 9.33301 79.4498 9.78125 79.4498 10.3291C79.4498 10.877 79.8981 11.3252 80.4459 11.3252ZM83.4725 22H84.9002V16.7041C84.9002 15.1353 85.8216 14.1807 87.2493 14.1807C88.6771 14.1807 89.3577 14.9443 89.3577 16.5547V22H90.7854V16.2061C90.7854 14.0811 89.6648 12.894 87.6561 12.894C86.2864 12.894 85.4148 13.4751 84.9666 14.4629H84.8338V13.0518H83.4725V22ZM96.6093 20.6055C94.9492 20.6055 94.0195 19.3438 94.0195 17.3931C94.0195 15.4424 94.9492 14.1807 96.6093 14.1807C98.2612 14.1807 99.2656 15.4424 99.2656 17.3931C99.2656 19.3438 98.2695 20.6055 96.6093 20.6055ZM96.6757 25.4365C99.1162 25.4365 100.66 24.1582 100.66 22.1577V13.0518H99.2988V14.4712H99.166C98.6513 13.5083 97.5473 12.894 96.2939 12.894C93.9946 12.894 92.542 14.7119 92.542 17.3931C92.542 20.0742 93.978 21.8672 96.2939 21.8672C97.5224 21.8672 98.5351 21.311 99.0996 20.3232H99.2324V22.083C99.2324 23.4028 98.2778 24.1914 96.6757 24.1914C95.3891 24.1914 94.5922 23.7183 94.4345 22.9878H92.9238C93.1396 24.4653 94.5175 25.4365 96.6757 25.4365ZM103.537 10.7358V13.0518H102.093V14.2471H103.537V19.6758C103.537 21.3857 104.276 22.0664 106.119 22.0664C106.401 22.0664 106.675 22.0332 106.957 21.9834V20.7798C106.692 20.8047 106.55 20.813 106.293 20.813C105.363 20.813 104.965 20.3647 104.965 19.3105V14.2471H106.957V13.0518H104.965V10.7358H103.537ZM112.25 22.1577C114.798 22.1577 116.375 20.3979 116.375 17.5259C116.375 14.6455 114.798 12.894 112.25 12.894C109.701 12.894 108.124 14.6455 108.124 17.5259C108.124 20.3979 109.701 22.1577 112.25 22.1577ZM112.25 20.8711C110.556 20.8711 109.602 19.6426 109.602 17.5259C109.602 15.4009 110.556 14.1807 112.25 14.1807C113.943 14.1807 114.898 15.4009 114.898 17.5259C114.898 19.6426 113.943 20.8711 112.25 20.8711ZM118.206 22H119.634V16.7041C119.634 15.1353 120.556 14.1807 121.983 14.1807C123.411 14.1807 124.092 14.9443 124.092 16.5547V22H125.519V16.2061C125.519 14.0811 124.399 12.894 122.39 12.894C121.02 12.894 120.149 13.4751 119.701 14.4629H119.568V13.0518H118.206V22ZM140.753 22H142.629L140.546 19.7671C141.201 18.7544 141.533 17.4014 141.533 15.542V15.3262H140.139V15.5337C140.139 17.0278 139.948 18.0073 139.574 18.7544L136.578 15.5337C138.429 14.5625 139.168 13.666 139.168 12.4375C139.168 10.8687 137.881 9.73975 136.113 9.73975C134.362 9.73975 133.058 10.8853 133.058 12.4209C133.058 13.2925 133.457 14.0645 134.561 15.2266C134.428 15.293 134.204 15.4092 134.096 15.459C132.494 16.3057 131.722 17.3848 131.722 18.8042C131.722 20.813 133.39 22.2241 135.773 22.2241C137.225 22.2241 138.628 21.7012 139.649 20.8047L140.753 22ZM134.959 16.3389C135.075 16.2808 135.291 16.1729 135.383 16.1396L138.769 19.8418C138.114 20.5308 136.993 20.9624 135.906 20.9624C134.303 20.9624 133.216 20.0493 133.216 18.7046C133.216 17.7666 133.805 16.9365 134.959 16.3389ZM135.773 14.687C134.826 13.749 134.486 13.168 134.486 12.5039C134.486 11.5742 135.167 10.9268 136.121 10.9268C137.093 10.9268 137.765 11.5576 137.765 12.4873C137.765 13.3423 137.234 13.9399 135.773 14.687ZM147.802 18.8706C147.96 20.9375 149.712 22.2822 152.252 22.2822C154.991 22.2822 156.726 20.8794 156.726 18.6797C156.726 16.9199 155.73 15.957 153.248 15.3345L151.994 15.0024C150.342 14.5791 149.687 14.0396 149.687 13.1016C149.687 11.8896 150.741 11.0928 152.335 11.0928C153.829 11.0928 154.841 11.8232 155.049 13.0518H156.551C156.427 11.1177 154.7 9.73975 152.384 9.73975C149.853 9.73975 148.151 11.1177 148.151 13.1514C148.151 14.853 149.089 15.8325 151.255 16.3804L152.791 16.7788C154.443 17.1938 155.19 17.8413 155.19 18.8623C155.19 20.0493 154.003 20.9209 152.393 20.9209C150.691 20.9209 149.496 20.124 149.313 18.8706H147.802ZM159.221 10.7358V13.0518H157.777V14.2471H159.221V19.6758C159.221 21.3857 159.96 22.0664 161.802 22.0664C162.085 22.0664 162.359 22.0332 162.641 21.9834V20.7798C162.375 20.8047 162.234 20.813 161.977 20.813C161.047 20.813 160.649 20.3647 160.649 19.3105V14.2471H162.641V13.0518H160.649V10.7358H159.221ZM167.145 20.9043C166.107 20.9043 165.335 20.373 165.335 19.46C165.335 18.5635 165.933 18.0903 167.294 17.999L169.702 17.8413V18.6631C169.702 19.9414 168.614 20.9043 167.145 20.9043ZM166.879 22.1577C168.075 22.1577 169.054 21.6348 169.635 20.6802H169.768V22H171.129V15.874C171.129 14.0146 169.909 12.894 167.726 12.894C165.817 12.894 164.406 13.8403 164.215 15.2764H165.659C165.858 14.5708 166.605 14.1641 167.676 14.1641C169.013 14.1641 169.702 14.77 169.702 15.874V16.6875L167.12 16.8452C165.037 16.9697 163.858 17.8911 163.858 19.4932C163.858 21.1284 165.144 22.1577 166.879 22.1577ZM173.957 10.7358V13.0518H172.512V14.2471H173.957V19.6758C173.957 21.3857 174.695 22.0664 176.538 22.0664C176.82 22.0664 177.094 22.0332 177.377 21.9834V20.7798C177.111 20.8047 176.97 20.813 176.712 20.813C175.783 20.813 175.384 20.3647 175.384 19.3105V14.2471H177.377V13.0518H175.384V10.7358H173.957ZM182.561 14.1558C183.981 14.1558 184.927 15.2017 184.96 16.7871H180.03C180.137 15.2017 181.134 14.1558 182.561 14.1558ZM184.919 19.6841C184.545 20.4727 183.765 20.896 182.611 20.896C181.092 20.896 180.104 19.7754 180.03 18.0073V17.9409H186.463V17.3931C186.463 14.6123 184.993 12.894 182.578 12.894C180.121 12.894 178.544 14.7202 178.544 17.5342C178.544 20.3647 180.096 22.1577 182.578 22.1577C184.537 22.1577 185.931 21.2114 186.346 19.6841H184.919Z" fill="black"/>
<path fill-rule="evenodd" clip-rule="evenodd" d="M23.7431 21.5741L19.9101 17.7396C20.5972 16.8025 20.9652 15.6695 20.9601 14.5076C20.947 11.4744 18.4937 9.01757 15.4606 9.00006C14.0091 8.99349 12.6152 9.56771 11.5895 10.5948C10.5638 11.6219 9.99154 13.0165 10.0001 14.4681C10.0132 17.5015 12.4667 19.9585 15.5001 19.9761C16.6668 19.9811 17.8039 19.6088 18.7416 18.9146L18.7456 18.9116L22.5751 22.7431C22.7821 22.9603 23.0907 23.0482 23.3811 22.9728C23.6716 22.8973 23.8983 22.6704 23.9735 22.3799C24.0487 22.0894 23.9605 21.7809 23.7431 21.5741ZM15.4961 18.878C13.0696 18.8641 11.1068 16.8986 11.0961 14.472C11.0896 13.311 11.5475 12.1955 12.3679 11.3739C13.1883 10.5523 14.3031 10.0927 15.4641 10.0975C17.8907 10.1115 19.8535 12.0769 19.8641 14.5035C19.8707 15.6646 19.4128 16.7801 18.5924 17.6017C17.772 18.4233 16.6572 18.8829 15.4961 18.878Z" fill="black"/>
</svg>
