<svg width="28" height="28" viewBox="0 0 28 28" fill="none" xmlns="http://www.w3.org/2000/svg">
<path fill-rule="evenodd" clip-rule="evenodd" d="M14 28C21.7318 28 28 21.7318 28 14C28 6.26818 21.7318 0 14 0C6.26818 0 0 6.26818 0 14C0 21.7318 6.26818 28 14 28ZM8.74442 22.1779C9.06058 22.0781 9.37864 21.982 9.69988 21.8957C9.78937 21.8718 9.88608 21.85 9.98603 21.8274C10.469 21.7186 11.0277 21.5928 11.2134 21.1201C11.2134 21.1201 11.513 20.2293 11.3899 18.6879C11.3899 18.6879 10.4719 18.5512 10.5957 15.9139C10.5957 15.9139 9.85415 16.5133 9.67766 15.023C9.67766 15.023 9.48339 13.9955 9.34245 13.8069C9.34245 13.8069 8.95392 12.7966 9.65988 12.9334C9.65988 12.9334 9.53609 10.9466 9.44848 10.5012C9.37229 10.118 9.41673 9.66953 9.48593 9.29004C9.54688 8.95861 9.65417 8.62594 9.84907 8.34378C10.0032 8.12113 10.2401 7.98054 10.4749 7.84115C10.5806 7.77845 10.6858 7.71599 10.7829 7.64641C10.8986 7.5635 11.0128 7.47807 11.1272 7.39258C11.4086 7.18203 11.6907 6.97107 11.9968 6.79626C12.1663 6.70015 12.3396 6.60959 12.5174 6.52889C12.5556 6.51139 12.6431 6.48899 12.7392 6.46437C12.8935 6.42485 13.0702 6.37962 13.1014 6.33976C13.1014 6.33976 13.2602 6.134 13.596 6.134C13.9547 6.11367 14.3191 6.12969 14.6765 6.16295C15.0009 6.19376 15.3241 6.24304 15.6383 6.32744C15.8937 6.39562 16.1508 6.50276 16.4045 6.60852C16.5336 6.66235 16.6619 6.71581 16.7887 6.76361C17.0649 6.86772 17.329 7.00264 17.5721 7.16712C18.2901 7.65257 18.6882 8.34748 18.8025 9.18285C18.8025 9.18285 19.0316 10.861 18.5022 12.8133C18.5022 12.8133 19.4557 12.334 18.8025 14.338C18.8025 14.338 18.626 14.9374 18.5911 15.2627C18.5911 15.2627 18.5377 16.119 17.8673 15.7081C17.8673 15.7081 17.92 18.5512 16.9671 18.6713C16.9671 18.6713 16.8611 21.2575 17.4788 21.531C17.4788 21.531 18.0609 21.9598 19.9852 22.319C19.9852 22.319 21.6034 22.8414 22.75 23.3589C20.5426 25.1608 17.6965 26.25 14.5857 26.25C11.3308 26.25 8.37176 25.0518 6.125 23.0977C6.99031 22.7699 7.86197 22.4576 8.74442 22.1779Z" fill="url(#paint0_linear)"/>
<defs>
<linearGradient id="paint0_linear" x1="1.31975" y1="0" x2="1.31975" y2="25.3605" gradientUnits="userSpaceOnUse">
<stop/>
<stop offset="1" stop-color="#66656A"/>
</linearGradient>
</defs>
</svg>
